<?xml version="1.0" encoding="utf-8"?>
<!-- Generator: Adobe Illustrator 21.1.0, SVG Export Plug-In . SVG Version: 6.00 Build 0)  -->
<svg version="1.1" id="rera" xmlns="http://www.w3.org/2000/svg" xmlns:xlink="http://www.w3.org/1999/xlink" x="0px" y="0px"
	 viewBox="0 0 58 58" style="enable-background:new 0 0 58 58;" xml:space="preserve">
<path aria-hidden="true" fill="#D3603A" d="M29,58C13,58,0,45,0,29C0,13,13,0,29,0c16,0,29,13,29,29C58,45,45,58,29,58z M29,4.1C15.2,4.1,4,15.2,4,29
	c0,13.8,11.2,24.9,24.9,25c13.8,0,24.9-11.2,24.9-24.9C53.9,15.2,42.8,4.1,29,4.1z M34.1,36.2H23.9l-1.7,5.3l-6.5,0l9.9-27.8h6.6
	l9.8,27.8l-6,0L34.1,36.2z M29.7,22.8c-0.4-1.1-0.7-2.6-0.7-3.5l-0.1,0c0,0.9-0.3,2.3-0.7,3.5l-2.9,8.9l7.2,0L29.7,22.8z"/>
</svg>
