<?xml version="1.0" encoding="utf-8"?>
<!-- Generator: Adobe Illustrator 21.1.0, SVG Export Plug-In . SVG Version: 6.00 Build 0)  -->
<svg version="1.1" id="rerd" xmlns="http://www.w3.org/2000/svg" xmlns:xlink="http://www.w3.org/1999/xlink" x="0px" y="0px"
	 viewBox="0 0 58 58" style="enable-background:new 0 0 58 58;" xml:space="preserve">
<path aria-hidden="true" fill="#00AB67" d="M29,58C13,58,0,45,0,29C0,13,13,0,29,0c16,0,29,13,29,29C58,45,45,58,29,58z M29,4.1C15.2,4.1,4.1,15.2,4.1,29
	c0,13.8,11.2,24.9,24.9,24.9C42.8,53.9,54,42.8,54,29C54,15.2,42.8,4.1,29,4.1z M26.5,42.7h-7.8V15h8.1c5.3,0,16.8,0.2,16.8,13.2
	C43.6,40.4,35,42.7,26.5,42.7z M27.6,19.8h-2.8v18.1h3c5.3,0,9.4-2,9.4-9.3C37.2,20.8,31.4,19.8,27.6,19.8z"/>
</svg>
