<?xml version="1.0" encoding="utf-8"?>
<!-- Generator: Adobe Illustrator 21.1.0, SVG Export Plug-In . SVG Version: 6.00 Build 0)  -->
<svg version="1.1" id="rere" xmlns="http://www.w3.org/2000/svg" xmlns:xlink="http://www.w3.org/1999/xlink" x="0px" y="0px"
	 viewBox="0 0 58 58" style="enable-background:new 0 0 58 58;" xml:space="preserve">
<path aria-hidden="true" fill="#D07FB5" d="M29,58c-16,0-29-13-29-29C0,13,12.9,0,29,0c16,0,29,13,29,29C58,45,45,58,29,58z M29,4.1
	C15.2,4.1,4.1,15.2,4.1,29S15.2,53.9,29,53.9C42.8,53.9,54,42.8,54,29C54,15.2,42.8,4.1,29,4.1z M20.9,15l17.1,0v5H27v5.7h10.6v4.8
	l-10.6,0v7.2l11.5,0v5H20.9V15z"/>
</svg>
