<?xml version="1.0" encoding="utf-8"?>
<!-- Generator: Adobe Illustrator 21.1.0, SVG Export Plug-In . SVG Version: 6.00 Build 0)  -->
<svg version="1.1" id="rerb" xmlns="http://www.w3.org/2000/svg" xmlns:xlink="http://www.w3.org/1999/xlink" x="0px" y="0px"
	 viewBox="0 0 58 58" style="enable-background:new 0 0 58 58;" xml:space="preserve">
<path aria-hidden="true" fill="#4F90CD" d="M29,58C13,58,0,45,0,29C0,13,13,0,29,0c16,0,29,13,29,29C58,45,45,58,29,58z M29,4.1C15.2,4.1,4.1,15.2,4.1,29
	S15.2,53.9,29,53.9c13.8,0,24.9-11.2,24.9-24.9S42.8,4.1,29,4.1z M40.9,34.1c0,7-6.1,8.6-11.4,8.6h-9.9V15H30c4.5,0,10,1,10,7
	c0,2.9-2.3,5-4.4,5.4v0.1C38.5,27.9,40.9,30.2,40.9,34.1z M28.7,19.6h-3V26h3.1c2.1,0,5.3,0,5.3-3.1C34.2,19.5,30.7,19.6,28.7,19.6z
	 M29,30.4h-3.3v7.7h3.6c2.9,0,5.4-0.6,5.4-4.2C34.7,30.5,31,30.4,29,30.4z"/>
</svg>
