<?xml version="1.0" encoding="utf-8"?>
<!-- Generator: Adobe Illustrator 21.1.0, SVG Export Plug-In . SVG Version: 6.00 Build 0)  -->
<svg version="1.1" id="rerc" xmlns="http://www.w3.org/2000/svg" xmlns:xlink="http://www.w3.org/1999/xlink" x="0px" y="0px"
	 viewBox="0 0 58 58" style="enable-background:new 0 0 58 58;" xml:space="preserve">
<path aria-hidden="true" fill="#EAC81C" d="M29,58C13,58,0,45,0,29C0,13,13,0,29,0c16,0,29,13,29,29C58,45,45,58,29,58z M29,4.1C15.2,4.1,4.1,15.2,4.1,29
	c0,13.8,11.2,24.9,24.9,24.9C42.8,53.9,54,42.8,54,29C54,15.2,42.8,4.1,29,4.1z M31,38.4c2.2,0,4.2-0.7,5.6-1.5l1.6,4.8
	c-2,1-5.3,1.9-8,1.9c-8.5,0-13.8-6.1-13.8-14.3c0-7.8,4.5-14.9,13.8-14.9c3.4,0,6,0.7,8,1.6l-2,5.1c-1.8-1-3.8-1.5-5.6-1.5
	c-5.8,0-7.8,5.1-7.8,9.5C22.8,35,26.6,38.4,31,38.4z"/>
</svg>
